# AST/ASF file generated using VICON BodyLanguage
# -----------------------------------------------
:version 1.10
:name VICON
:units
  mass 1.0
  length 0.45
  angle deg
:documentation
   .ast/.asf automatically generated from VICON data using
   VICON BodyBuilder and BodyLanguage model FoxedUp or BRILLIANT.MOD
:root
   order TX TY TZ RX RY RZ
   axis XYZ
   position 0 0 0  
   orientation 0 0 0 
:bonedata
  begin
     id 1 
     name lhipjoint
     direction 0.623415 -0.642378 0.445763 
     length 2.49859 
     axis 0 0 0  XYZ
  end
  begin
     id 2 
     name lfemur
     direction 0.34202 -0.939693 0  
     length 6.69689  
     axis 0 0 20  XYZ
    dof rx ry rz
    limits (-160.0 20.0)
           (-70.0 70.0)
           (-60.0 70.0)
  end
  begin
     id 3 
     name ltibia
     direction 0.34202 -0.939693 0   
     length 7.37574   
     axis 0 0 20   XYZ
    dof rx
    limits (-10.0 170.0)
  end
  begin
     id 4 
     name lfoot
     direction 0.084323 -0.231675 0.969132   
     length 2.09111   
     axis -90 7.62852e-016 20   XYZ
    dof rx rz
    limits (-45.0 90.0)
           (-70.0 20.0)
  end
  begin
     id 5 
     name ltoes
     direction 1.5357e-011 -4.21957e-011 1   
     length 1.04989   
     axis -90 7.62852e-016 20   XYZ
    dof rx
    limits (-90.0 20.0)
  end
  begin
     id 6 
     name rhipjoint
     direction -0.605402 -0.653903 0.45376   
     length 2.45455  
     axis 0 0 0  XYZ 
  end
  begin
     id 7 
     name rfemur
     direction -0.34202 -0.939693 0   
     length 6.64523   
     axis 0 0 -20   XYZ
    dof rx ry rz
    limits (-160.0 20.0)
           (-70.0 70.0)
           (-70.0 60.0)
  end
  begin
     id 8 
     name rtibia
     direction -0.34202 -0.939693 0   
     length 7.3339   
     axis 0 0 -20   XYZ
    dof rx
    limits (-10.0 170.0)
 end
 begin
     id 9 
     name rfoot
     direction -0.120854 -0.332043 0.93549   
     length 2.23135  
     axis -90 -7.62852e-016 -20   XYZ
    dof rx rz
    limits (-45.0 90.0)
           (-20.0 70.0)
  end
  begin
     id 10 
     name rtoes
     direction -1.53563e-011 -4.21914e-011 1   
     length 1.10614   
     axis -90 -7.62852e-016 -20   XYZ
    dof rx
    limits (-90.0 20.0)
  end
  begin
     id 11 
     name lowerback
     direction 0.0319682 0.998615 -0.0417941   
     length 2.02718   
     axis 0 0 0   XYZ
    dof rx ry rz
    limits (-20.0 45.0)
           (-30.0 30.0)
           (-30.0 30.0)
  end
  begin
     id 12 
     name upperback
     direction 7.63181e-005 0.995808 0.0914691   
     length 1.97539   
     axis 0 0 0   XYZ
    dof rx ry rz
    limits (-20.0 45.0)
           (-30.0 30.0)
           (-30.0 30.0)
  end
  begin
     id 13 
     name thorax
     direction -0.016423 0.993627 0.111514   
     length 2.00349   
     axis 0 0 0   XYZ
    dof rx ry rz
    limits (-20.0 45.0)
           (-30.0 30.0)
           (-30.0 30.0)
  end
  begin
     id 14 
     name lowerneck
     direction -0.174763 0.981668 -0.0760716   
     length 1.71436   
     axis 0 0 0   XYZ
    dof rx ry rz
    limits (-20.0 45.0)
           (-30.0 30.0)
           (-30.0 30.0)
  end
  begin
     id 15 
     name upperneck
     direction 0.345458 0.934587 -0.0848868   
     length 1.72805   
     axis 0 0 0   XYZ
    dof rx ry rz
    limits (-20.0 45.0)
           (-30.0 30.0)
           (-30.0 30.0)
  end
  begin
     id 16
     name head
     direction 0.13001 0.989848 -0.0574291  
     length 1.767  
     axis 0 0 0   XYZ
    dof rx ry rz
    limits (-20.0 45.0)
           (-30.0 30.0)
           (-30.0 30.0)
  end
  begin
     id 17 
     name lclavicle
     direction 0.952951 0.290122 0.0878234  
     length 3.54654  
     axis 0 0 0   XYZ
    dof ry rz
    limits (-20.0 10.0)
           (0.0 20.0)
  end
  begin
     id 18 
     name lhumerus
     direction 1 -4.48957e-011 -4.56525e-028   
     length 5.19807   
     axis 180 -30 -90   XYZ
    dof rx ry rz
    limits (-60.0 90.0)
           (-90.0 90.0)
           (-90.0 90.0)
  end
  begin
     id 19
     name lradius
     direction 1 -4.48979e-011 -2.0317e-027   
     length 3.0937   
     axis 180 -30 -90   XYZ
    dof rx
    limits (-10.0 170.0)
  end
  begin
     id 20
     name lwrist
     direction 1 -4.48953e-011 -3.05809e-027   
     length 1.54685   
     axis 8.48514e-016 90 90   XYZ
    dof ry
    limits (-180.0 0.0)
 end
  begin
     id 21 
     name lhand
     direction 1 -4.48952e-011 -6.11639e-027   
     length 0.672632   
     axis 3.9013e-015 90 90   XYZ
    dof rx rz
    limits (-90.0 90.0)
           (-45.0 45.0)
  end
  begin
     id 22 
     name lfingers
     direction 1 -4.48925e-011 -1.22426e-026   
     length 0.542293   
     axis 7.80276e-015 90 90   XYZ
    dof rx
    limits (0.0 90.0)
  end
  begin
     id 23
     name lthumb
     direction 0.707107 -6.3486e-011 0.707107   
     length 0.778628   
     axis -90 45 5.37419e-014   XYZ
    dof rx rz
    limits (-45.0 45.0)
           (-45.0 45.0)
  end
  begin
     id 24 
     name rclavicle
     direction -0.960732 0.273675 -0.0457849   
     length 3.52079  
     axis 0 0 0   XYZ 
    dof ry rz
    limits (-10.0 20.0)
           (-20.0 0.0)
  end
  begin
     id 25 
     name rhumerus
     direction -1 -4.48976e-011 -1.63613e-027  
     length 5.45222   
     axis 180 30 90   XYZ
    dof rx ry rz
    limits (-90.0 60.0)
           (-90.0 90.0)
           (-90.0 90.0)
  end
  begin
     id 26 
     name rradius
     direction -1 -4.48957e-011 -7.00033e-028   
     length 3.01284   
     axis 180 30 90   XYZ
    dof rx
    limits (-10.0 170.0)
  end
  begin
     id 27 
     name rwrist
     direction -1 -4.48983e-011 -3.05543e-027   
     length 1.50642   
     axis 8.48514e-016 -90 -90   XYZ
    dof ry
    limits (-180.0 0.0)
  end
  begin
     id 28
     name rhand
     direction -1 -4.48984e-011 -6.11072e-027   
     length 0.622296   
     axis 3.9013e-015 -90 -90   XYZ
    dof rx rz
    limits (-90.0 90.0)
           (-45.0 45.0)
  end
  begin
     id 29
     name rfingers
     direction -1 -4.48865e-011 -1.22637e-026   
     length 0.501711   
     axis 7.80276e-015 -90 -90   XYZ
    dof rx
    limits (0.0 90.0)
  end
  begin
     id 30
     name rthumb
     direction -0.707107 -6.34932e-011 0.707107   
     length 0.72036   
     axis -90 -45 -5.37419e-014   XYZ
    dof rx rz
    limits (-45.0 45.0)
           (-45.0 45.0)
  end
:hierarchy
  begin
    root lhipjoint rhipjoint lowerback
    lhipjoint lfemur
    lfemur ltibia
    ltibia lfoot
    lfoot ltoes
    rhipjoint rfemur
    rfemur rtibia
    rtibia rfoot
    rfoot rtoes
    lowerback upperback
    upperback thorax
    thorax lowerneck lclavicle rclavicle
    lowerneck upperneck
    upperneck head
    lclavicle lhumerus
    lhumerus lradius
    lradius lwrist
    lwrist lhand lthumb
    lhand lfingers
    rclavicle rhumerus
    rhumerus rradius
    rradius rwrist
    rwrist rhand rthumb
    rhand rfingers
  end

#!OML:ASF H:\Not Pregnant\Project 1\Capture day 1\Session 1\non-pregnant.ASF
:FULLY-SPECIFIED
:DEGREES
158
root -5.93281 16.2534 34.6679 150.143 -82.2347 -136.658
lowerback -12.863 2.79416 5.16294
upperback -9.21155 2.64311 0.341791
thorax -2.27709 0.864537 -2.24293
lowerneck 17.1249 -6.05542 -33.2951
upperneck -10.4827 -13.793 40.94
head 0.152404 -9.12437 22.3705
rclavicle -9.93923e-015 -4.96962e-015
rhumerus -0.182912 -0.0396143 6.33517
rradius 136.259
rwrist -2.38181
rhand 11.5998 5.6129
rfingers 7.12502
rthumb 36.6421 -20.5432
lclavicle -9.93923e-015 -4.96962e-015
lhumerus -8.26751 7.0403 -6.35869
lradius 140.349
lwrist 49.1609
lhand 14.8701 -12.9729
lfingers 7.12502
lthumb 39.7293 12.3342
rfemur -8.2095 -13.9496 25.5541
rtibia 3.77809
rfoot -13.0488 20.7796
rtoes -9.98192
lfemur -17.7867 7.07984 -14.4552
ltibia 18.8452
lfoot -15.9858 -6.61082
ltoes -17.8779
159
root -5.93292 16.2532 34.6676 150.36 -82.2324 -136.853
lowerback -12.8105 2.81932 5.18547
upperback -9.2751 2.67551 0.295643
thorax -2.36784 0.87343 -2.30274
lowerneck 17.0803 -6.04357 -33.2918
upperneck -10.3644 -13.7685 40.8055
head 0.162338 -9.0925 22.2754
rclavicle 4.72114e-015 -2.46493e-014
rhumerus 0.0385975 -1.26409 6.78248
rradius 136.302
rwrist -2.40529
rhand 11.3866 5.38867
rfingers 7.12502
rthumb 36.4403 -20.8184
lclavicle 4.72114e-015 -2.46493e-014
lhumerus -7.96625 8.68408 -6.96084
lradius 140.295
lwrist 49.4736
lhand 14.7302 -13.1724
lfingers 7.12502
lthumb 39.5976 12.1738
rfemur -8.3509 -13.931 25.5459
rtibia 3.98889
rfoot -13.1391 20.7645
rtoes -9.93419
lfemur -17.8079 7.10715 -14.4805
ltibia 18.8408
lfoot -15.986 -6.62436
ltoes -17.8501
160
root -5.93309 16.2531 34.6672 150.567 -82.2323 -137.041
lowerback -12.7552 2.8431 5.21273
upperback -9.33891 2.70583 0.245215
thorax -2.46017 0.880843 -2.37007
lowerneck 17.0345 -6.03498 -33.2602
upperneck -10.2417 -13.7409 40.6533
head 0.167531 -9.058 22.1627
rclavicle -2.26615e-014 6.75868e-015
rhumerus 0.246733 -2.49199 7.20264
rradius 136.338
rwrist -2.34578
rhand 11.1374 5.22424
rfingers 7.12502
rthumb 36.2043 -21.0418
lclavicle -2.26615e-014 6.75868e-015
lhumerus -7.6793 10.3191 -7.56061
lradius 140.232
lwrist 49.6476
lhand 14.5285 -13.3771
lfingers 7.12502
lthumb 39.4076 12.025
rfemur -8.49339 -13.9151 25.5365
rtibia 4.20458
rfoot -13.2311 20.7499
rtoes -9.87548
lfemur -17.8273 7.13997 -14.5073
ltibia 18.8342
lfoot -15.9873 -6.64246
ltoes -17.8448
161
root -5.9333 16.2529 34.6669 150.749 -82.2297 -137.201
lowerback -12.7006 2.86481 5.23557
upperback -9.39952 2.73387 0.203727
thorax -2.54939 0.887703 -2.42584
lowerneck 16.9826 -6.0282 -33.2359
upperneck -10.1178 -13.7159 40.4999
head 0.176152 -9.0241 22.0502
rclavicle -8.99501e-015 -7.95139e-015
rhumerus 0.454989 -3.74136 7.60118
rradius 136.378
rwrist -2.27671
rhand 10.944 5.09981
rfingers 7.12502
rthumb 36.0211 -21.2115
lclavicle -8.99501e-015 -7.95139e-015
lhumerus -7.42116 11.9321 -8.13675
lradius 140.153
lwrist 49.6529
lhand 14.2033 -13.6079
lfingers 7.12502
lthumb 39.1012 11.8831
rfemur -8.63931 -13.8992 25.5298
rtibia 4.42347
rfoot -13.3147 20.7389
rtoes -9.78239
lfemur -17.8463 7.16838 -14.5292
ltibia 18.826
lfoot -15.9864 -6.65636
ltoes -17.8402
162
root -5.93354 16.2528 34.6669 150.972 -82.229 -137.401
lowerback -12.6485 2.87579 5.24511
upperback -9.45508 2.74886 0.179647
thorax -2.63421 0.889351 -2.45734
lowerneck 16.8725 -6.0059 -33.3126
upperneck -9.934 -13.6932 40.3992
head 0.227933 -8.99018 21.989
rclavicle 3.72721e-015 -5.56597e-015
rhumerus 0.705471 -5.03564 7.98741
rradius 136.416
rwrist -2.24039
rhand 10.9447 4.9402
rfingers 7.12502
rthumb 36.0218 -21.3709
lclavicle 3.72721e-015 -5.56597e-015
lhumerus -7.22648 13.5244 -8.69705
lradius 140.047
lwrist 49.5383
lhand 13.779 -13.8791
lfingers 7.12502
lthumb 38.7011 11.7259
rfemur -8.79021 -13.8825 25.5157
rtibia 4.64786
rfoot -13.3969 20.7295
rtoes -9.67932
lfemur -17.8645 7.19586 -14.558
ltibia 18.8151
lfoot -15.9846 -6.66538
ltoes -17.8463
